<?xml version="1.0" standalone="no"?>
<!DOCTYPE svg PUBLIC "-//W3C//DTD SVG 1.0//EN" "http://www.w3.org/TR/2001/REC-SVG-20010904/DTD/svg10.dtd">
<svg xmlns="http://www.w3.org/2000/svg" xmlns:xlink="http://www.w3.org/1999/xlink" id="body_1" width="61" height="61">

<g transform="matrix(0.15884714 0 0 0.15884714 0.0013500651 -0)">
    <path d="M192 0.017C 85.964 0.017 0 85.980995 0 192.017C 0 298.04102 85.964 384.017 192 384.017C 298.036 384.017 384 298.04102 384 192.017C 384 85.98 298.036 0.017 192 0.017zM192 348.015C 105.977 348.015 35.996002 278.028 35.996002 192.01701C 35.996002 174.01001 39.099003 156.71802 44.742004 140.62302L44.742004 140.62302L105.755005 167.79202C 104.11201 175.95702 103.22101 184.47403 103.22101 193.27103C 103.22101 269.92102 160.43301 291.51804 196.42902 291.51804C 217.65602 291.51804 236.02701 284.66605 250.40802 274.61404C 253.14102 272.65503 255.61702 270.68405 257.89203 268.67804L257.89203 268.67804L229.90202 234.66904C 229.08102 235.60704 228.22403 236.49904 227.34502 237.29704C 216.45802 247.62004 204.49202 247.62004 201.81802 247.62004C 172.53203 247.62004 160.27303 216.72104 160.10902 191.96904L160.10902 191.96904L328.26602 266.83603C 328.46503 266.87103 328.62903 266.87103 328.79303 266.90604C 302.259 315.215 250.89 348.015 192 348.015zM342.332 231.878L168.896 154.466C 175.15399 143.134 185.114 134.617 200.01799 134.617C 208.65799 134.617 215.50899 137.479 220.90498 141.093C 223.14499 142.712 225.09299 144.33 226.73499 145.961L226.73499 145.961L257.998 113.783C 236.99998 95.729 213.12698 92.503 197.51398 92.503C 160.82597 92.503 134.86497 108.363 119.56197 132.44699L119.56197 132.44699L61.564 106.58C 89.478 64.114 137.51 36.007 192 36.007C 278.022 36.007 348.01 105.983 348.01 192.017C 348.01 205.942 346.14502 219.42 342.707 232.278C 342.566 232.137 342.473 232.019 342.332 231.878z" stroke="none" fill="#000000" fill-rule="nonzero" />
</g>
</svg>